<svg xmlns="http://www.w3.org/2000/svg" viewBox="0 0 128 128" width="128" height="128">
  <path fill="#00ACD7" d="M11.6 51.2h28.5c-2.4 12.3-10.4 18.5-23.8 18.5-12.8 0-21.7-8.3-21.7-22.1S3.4 25.5 16.3 25.5c11.5 0 18.6 6.3 20.9 14.6h12.5C46.8 26.6 34.6 15 16.3 15-4.2 15-18 28.5-18 47.6s13.8 32.6 34.3 32.6c21.8 0 35.8-13.8 35.8-35.3V40.7H11.6v10.5z" transform="translate(18 16)"/>
  <path fill="#00ACD7" d="M84.2 47.6c0-19.1-13.8-32.6-34.3-32.6S15.6 28.5 15.6 47.6s13.8 32.6 34.3 32.6 34.3-13.5 34.3-32.6zm-56.1 0c0-13.8 8.9-22.1 21.7-22.1s21.7 8.3 21.7 22.1-8.9 22.1-21.7 22.1-21.7-8.3-21.7-22.1z" transform="translate(42 16)"/>
</svg>
