<svg xmlns="http://www.w3.org/2000/svg" viewBox="0 0 24 24" fill="none">
  <path d="M8.851 18.56s-.928.636.664.927c1.923.352 2.824.325 4.855-.012 1.783-.297 3.281-.297 3.281-.297s.636.95-1.136 1.555c-1.136.38-3.566.832-6.169.832-2.603 0-4.855-.76-4.855-.76s.636-.95 1.36-1.245z" fill="#ED8B00"/>
  <path d="M8.289 15.305s-1.155.76.532 1.017c1.923.297 3.281.297 5.312-.038 1.783-.297 3.566-.38 3.566-.38s.475.95-1.017 1.555c-1.017.38-3.281.95-6.169.95-2.888 0-5.217-1.017-5.217-1.017s.76-.95 1.555-1.245c.76-.297 1.428-.802 1.428-.802z" fill="#ED8B00"/>
  <path d="M13.234 11.375c.76 1.017-.19 1.925-.19 1.925s1.555-.95.95-2.603c-.532-1.36-1.36-1.925-1.36-1.925s.19 1.36.6 2.603z" fill="#5382A1"/>
  <path d="M16.889 13.234c1.555 1.36-.38 2.603-.38 2.603s2.035-1.155 1.155-3.566c-.636-1.703-1.703-2.413-1.703-2.413s.38 1.36.928 3.376z" fill="#5382A1"/>
  <path d="M9.626 10.358s1.36 1.36-1.155 2.888c-2.035 1.245-1.017 2.035.19 2.035 1.36 0 2.413-.76 2.413-.76s-.76.475-1.555.475c-1.017 0-1.703-.38-1.703-.76 0-.95 1.36-1.703 2.888-2.413 1.703-.76 1.36-1.703-.38-1.703-1.017 0-1.36.38-1.36.38z" fill="#5382A1"/>
  <path d="M5.312 21.5s1.017.76 3.566.76c3.281 0 4.474-.76 4.474-.76s-.76.38-2.413.57c-2.035.19-4.474.19-5.69-.19-.76-.19-.38-.38.38-.38z" fill="#5382A1"/>
  <path d="M11.375 0s3.376 3.376-1.017 7.125c-3.281 2.888-.95 4.474.19 4.855.95.38.76-.19.38-.76-.38-.57-1.36-1.36-.19-2.413 1.36-1.155 2.603-4.283 1.36-6.169C8.289 1.36 11.375 0 11.375 0z" fill="#5382A1"/>
  <path d="M17.469 9.626s.95 1.36-1.155 2.888c-1.703 1.245-1.017 1.925.19 1.925.95 0 1.703-.38 1.703-.38s-.38.38-1.155.38c-1.017 0-1.555-.38-1.555-.76 0-.95 1.555-1.703 3.281-2.413 1.703-.76 1.36-1.36-.38-1.36-.95 0-1.36.38-1.36.38z" fill="#5382A1"/>
  <path d="M14.474 21.5s.95.19 2.413.19c2.413 0 2.888-.19 2.888-.19s.19.95-2.413 1.155c-2.035.19-3.566.19-3.566.19s.38-.38.38-.57c0-.19.19-.38.19-.38z" fill="#5382A1"/>
</svg>
