<svg xmlns="http://www.w3.org/2000/svg" viewBox="0 0 24 24" fill="none">
  <path d="M17.5 2.5L22 7L17.5 11.5L22 16L17.5 20.5L2 12L17.5 2.5Z" fill="#007ACC"/>
  <path d="M17.5 2.5L22 7L17.5 11.5L22 16L17.5 20.5L2 12L17.5 2.5Z" fill="url(#vscode-gradient)" opacity="0.8"/>
  <path d="M9 12L2 7L4.5 4.5L9 7.5L17.5 2.5L22 7L9 12Z" fill="#1F9CF0" opacity="0.6"/>
  <path d="M9 12L2 17L4.5 19.5L9 16.5L17.5 20.5L22 16L9 12Z" fill="#1F9CF0" opacity="0.6"/>
  <defs>
    <linearGradient id="vscode-gradient" x1="0%" y1="0%" x2="100%" y2="100%">
      <stop offset="0%" style="stop-color:#007ACC;stop-opacity:1" />
      <stop offset="100%" style="stop-color:#005A9E;stop-opacity:1" />
    </linearGradient>
  </defs>
</svg>
